<?xml version="1.0" encoding="UTF-8" standalone="no"?>
<!-- Created with Inkscape (http://www.inkscape.org/) -->

<svg
   width="147.31465mm"
   height="121.12654mm"
   viewBox="0 0 147.31465 121.12654"
   version="1.1"
   id="svg1"
   xml:space="preserve"
   sodipodi:docname="colibri.svg"
   inkscape:version="1.4 (e7c3feb100, 2024-10-09)"
   xmlns:inkscape="http://www.inkscape.org/namespaces/inkscape"
   xmlns:sodipodi="http://sodipodi.sourceforge.net/DTD/sodipodi-0.dtd"
   xmlns="http://www.w3.org/2000/svg"
   xmlns:svg="http://www.w3.org/2000/svg"><sodipodi:namedview
     id="namedview1"
     pagecolor="#505050"
     bordercolor="#ffffff"
     borderopacity="1"
     inkscape:showpageshadow="0"
     inkscape:pageopacity="0"
     inkscape:pagecheckerboard="1"
     inkscape:deskcolor="#505050"
     inkscape:document-units="mm"
     inkscape:zoom="1.7452994"
     inkscape:cx="278.17577"
     inkscape:cy="228.90055"
     inkscape:window-width="1920"
     inkscape:window-height="1008"
     inkscape:window-x="0"
     inkscape:window-y="0"
     inkscape:window-maximized="1"
     inkscape:current-layer="svg1" /><defs
     id="defs1" /><g
     id="layer1"
     transform="translate(-37.867532,-74.390347)"
     style="stroke-width:0.025;stroke-dasharray:none;opacity:1"><path
       style="fill:none;stroke:#000000;stroke-width:0.025;stroke-dasharray:none;stroke-opacity:1"
       d="m 137.89053,194.85333 c 0.4843,-1.92961 -0.50495,-7.65734 -2.80642,-16.24906 -0.72223,-2.69619 -1.97112,-7.8192 -2.77533,-11.38446 -2.56723,-11.38131 -4.4845,-17.74084 -7.05798,-23.41116 -1.76929,-3.89841 -1.73311,-3.66587 -0.63236,-4.06391 1.18192,-0.42739 2.5019,-1.5235 2.80976,-2.33324 0.1502,-0.39506 0.45285,-0.62087 0.83712,-0.62458 1.26452,-0.0122 2.78145,-0.95541 3.14253,-1.95398 0.28434,-0.78633 0.47322,-0.95063 1.09285,-0.95063 2.09891,0 3.59611,-1.52427 2.82096,-2.87196 -0.40257,-0.69991 -0.40257,-0.69991 1.73085,-0.62182 2.83492,0.10377 4.51614,-0.64006 4.51211,-1.99632 -0.002,-0.80912 0.0529,-0.8599 0.9366,-0.8599 1.99307,0 5.6404,-1.2914 6.86221,-2.42969 0.46139,-0.42985 0.56383,-0.74897 0.45523,-1.41819 -0.13329,-0.82136 -0.0927,-0.87211 0.83128,-1.03953 2.13991,-0.38772 6.10546,-2.60024 6.598,-3.68125 0.22015,-0.48317 0.19957,-0.75527 -0.0882,-1.16611 -0.35653,-0.50902 -0.30021,-0.55952 1.12356,-1.00735 3.37746,-1.06234 7.16698,-4.55874 6.43113,-5.93369 -0.1999,-0.37351 0.11816,-0.62338 1.94718,-1.52969 4.42333,-2.19185 7.75334,-6.28011 5.56309,-6.82983 -0.62494,-0.15685 -0.43317,-0.30962 1.88831,-1.50422 2.93885,-1.512295 6.21562,-4.368965 6.21562,-5.418735 0,-0.85774 -1.07869,-1.18442 -3.30729,-1.00161 -1.50685,0.12361 -1.72879,0.0961 -1.19063,-0.14754 8.13574,-3.68338 10.71016,-5.88352 8.5437,-7.30156 -1.05031,-0.68747 -5.87385,-0.61056 -9.86662,0.15732 -14.50214,2.78905 -31.31241,10.31751 -59.8368,26.797845 -5.90853,3.41374 -7.71093,4.19342 -9.69398,4.19342 -3.0137,0 -5.748637,-1.38106 -11.069877,-5.58994 -6.34792,-5.02094 -7.42879,-5.48601 -10.11285,-4.3513 -1.16672,0.49324 -1.91478,0.65946 -2.44437,0.54314 -1.18937,-0.26123 -1.10507,-0.53347 0.13462,-0.43476 3.05497,0.24325 4.00514,-3.75066 1.03369,-4.34495 -1.0587,-0.21174 -2.07468,0.33191 -3.49027,1.86764 -1.30714,1.41809 -1.9712,1.72684 -3.71408,1.72684 -2.45658,0 -5.05191,-1.2264 -5.05191,-2.38723 0,-0.38786 2.56474,-2.17719 6.35,-4.43018 2.82458,-1.681185 7.59214,-2.507625 11.07604,-1.919985 4.42568,0.74648 7.58271,3.138025 11.71334,8.873215 2.952877,4.09994 7.666457,8.59543 9.012417,8.59543 0.60437,0 0.0417,-0.59477 -1.37918,-1.45793 -2.1129,-1.28351 -4.54408,-3.72183 -6.46061,-6.47957 -4.578467,-6.58807 -7.778407,-9.167695 -12.441487,-10.029715 -5.00726,-0.92564 -9.27183,0.18734 -15.04307,3.925965 -3.62592,2.34889 -5.12397,2.7569 -13.16806,3.58647 -7.05249,0.72731 -13.12075,1.91789 -16.28029,3.19416 -2.25828,0.91221 -5.65826,2.59865 -5.65826,2.80657 0,0.2721 -1.01904,0.37563 7.14375,-0.72574 11.40225,-1.53846 19.24935,-1.52682 23.10015,0.0343 4.29635,1.7417 8.71603,6.55644 11.90334,12.96731 1.37379,2.7632 1.69601,3.72488 2.93763,8.76757 1.60993,6.53845 3.72894,10.79527 7.85457,15.77881 4.81801,5.81989 10.477037,10.15771 16.645967,12.75966 2.41085,1.01685 6.16441,2.02261 6.73351,1.80422 0.21245,-0.0815 0.45797,0.18461 0.63269,0.6858 0.21983,0.6306 0.21187,0.77668 -0.0346,0.635 -0.17607,-0.10121 -0.076,0.10307 0.22233,0.45396 0.29835,0.35088 0.87075,1.13051 1.272,1.73251 2.61054,3.91657 9.74361,8.73415 11.52248,7.78213 0.30453,-0.16298 0.55369,-0.40146 0.55369,-0.52996 0,-0.44324 -0.32182,-1.07066 -0.54917,-1.07066 -0.12539,0 -0.15483,0.19061 -0.0654,0.42357 0.21404,0.55778 -0.4045,0.9174 -1.23529,0.71819 -3.13439,-0.75157 -9.0299,-5.74846 -10.64015,-9.01833 -0.44929,-0.91237 -0.76964,-1.69132 -0.71187,-1.73099 0.0578,-0.0397 0.70035,-0.22298 1.42795,-0.40734 2.71792,-0.68866 4.4824,-3.62666 3.04271,-5.06635 -1.5983,-1.5983 -5.02708,1.16978 -5.02708,4.05839 0,0.77949 0,0.77949 -1.52136,0.61846 -5.38163,-0.56961 -12.61833,-4.75323 -18.589117,-10.74661 -6.43516,-6.45949 -9.01298,-10.9592 -11.12134,-19.41284 -0.44233,-1.77358 -1.05427,-3.9986 -1.35986,-4.94449 -1.94134,-6.00894 -7.61779,-13.60714 -11.83925,-15.8474 l -1.693,-0.89844 2.09374,-0.71042 c 2.35182,-0.798 3.28436,-1.2435 3.28436,-1.56905 0,-0.1217 0.98226,-0.28031 2.18281,-0.35246 1.95437,-0.11746 2.32126,-0.0615 3.50573,0.53478 1.61248,0.81173 3.09975,0.83836 4.58224,0.082 0.59687,-0.3045 1.29832,-0.55247 1.55878,-0.55105 1.02503,0.006 3.27279,1.36326 6.55898,3.96169 6.40801,5.0669 8.757537,6.35922 11.931807,6.56293 2.54462,0.16331 3.79333,-0.26051 8.07845,-2.74182 23.69424,-13.72022 37.57919,-20.600285 50.50118,-25.023605 9.23724,-3.16199 18.75355,-4.69072 21.16521,-3.40004 2.62932,1.40717 -6.57125,6.43892 -15.07979,8.24706 -12.92439,2.74655 -25.57981,7.234075 -31.22083,11.070695 -2.85761,1.94354 -3.9697,3.09508 -6.89673,7.14136 -5.5708,7.70098 -5.93942,8.0945 -10.5852,11.3005 -3.59043,2.47771 -4.32158,3.7442 -3.29629,5.70983 0.38518,0.73845 0.38518,0.73845 -0.39051,0.18612 -0.42662,-0.30379 -0.84584,-0.66586 -0.93159,-0.80461 -0.2507,-0.40563 -1.3765,-0.29001 -1.54882,0.15907 -0.24696,0.64354 0.72076,3.06316 2.04188,5.10541 2.10474,3.25359 4.07023,4.80201 6.09545,4.80201 0.92301,0 0.96846,0.05 1.98205,2.18281 2.65291,5.58218 4.89658,12.78391 7.31566,23.48177 0.8062,3.56526 2.07115,8.80401 2.811,11.64167 2.47324,9.48597 3.1362,12.74704 3.13767,15.43402 0.001,1.89865 -0.28247,1.88075 -1.65616,-0.10459 -0.95832,-1.38501 -6.64365,-12.63458 -7.34607,-14.53568 -0.8947,-2.42152 -1.03217,-1.23885 -0.24603,2.11666 1.93592,8.26312 2.50637,11.90625 1.86429,11.90625 -1.19504,0 -4.97462,-7.65058 -7.03404,-14.23822 -0.41791,-1.33679 -0.85697,-2.43053 -0.9757,-2.43053 -0.11872,0 -0.21768,2.35149 -0.21991,5.22552 -0.004,5.41253 -0.14596,6.24125 -0.98061,5.7324 -2.17488,-1.32594 -4.67228,-9.96662 -5.02158,-17.37406 -0.0931,-1.97469 -0.26916,-3.37344 -0.42458,-3.37344 -0.4092,0 -0.0184,6.28539 0.60403,9.71546 1.18442,6.52677 3.48849,11.71579 5.20214,11.71579 0.97574,0 1.15313,-0.77295 1.16491,-5.07584 l 0.0111,-4.05229 1.39833,3.70417 c 2.46687,6.53474 5.12145,11.10356 6.34962,10.92839 0.87422,-0.12469 0.71047,-3.0916 -0.44946,-8.14353 -0.51703,-2.25187 -0.91718,-4.11439 -0.88922,-4.13895 0.028,-0.0246 0.70568,1.33899 1.50604,3.03009 4.45787,9.4191 7.02856,13.15841 7.56814,11.00856 z m -22.64939,-32.84165 c 0,-1.76803 1.78001,-4.05228 3.15776,-4.05228 2.10507,0 1.64686,2.73218 -0.69608,4.1505 -1.43576,0.86916 -2.46168,0.82823 -2.46168,-0.0982 z m 5.01906,-22.63926 c -2.30679,-1.16529 -7.05181,-8.66511 -5.48228,-8.66511 1.18107,0 7.87155,7.63374 7.87155,8.98132 0,0.46519 -1.14146,0.31412 -2.38927,-0.31621 z m 2.5725,-0.29012 c -0.39499,-0.60283 -0.38655,-0.61698 0.29083,-0.48749 0.65657,0.12551 0.63745,0.0805 -0.32495,-0.76447 -2.43375,-2.13686 -5.69481,-6.84597 -5.70278,-8.23506 -0.006,-1.08217 0.7762,-1.93124 3.54158,-3.84329 3.3215,-2.29657 5.79569,-4.66312 7.68199,-7.3478 3.51211,-4.9986 6.06047,-8.33437 6.36704,-8.33437 0.18687,0 3.24024,-0.77772 6.78526,-1.72825 13.23893,-3.54979 30.9221,-6.48059 30.91847,-5.12441 -0.003,1.09297 -2.25592,3.5162 -4.49692,4.83668 -3.09905,1.82609 -3.70015,1.95283 -12.7,2.67778 -8.46773,0.68209 -20.54653,1.88681 -21.62969,2.15731 -0.32742,0.0818 -0.59531,0.25482 -0.59531,0.38457 0,0.29168 0.0315,0.29122 2.00642,-0.0294 1.88071,-0.30528 15.59798,-1.63561 23.33455,-2.26304 6.02869,-0.48892 6.45129,-0.42004 5.74947,0.93712 -0.99092,1.91622 -4.79508,4.3083 -7.54219,4.74256 -0.75935,0.12003 -3.18343,0.12137 -5.38684,0.003 -8.28135,-0.445 -19.39251,-0.60657 -19.59131,-0.28489 -0.1393,0.22539 0.83892,0.31104 3.72939,0.32655 2.15502,0.0115 7.68023,0.16038 12.27824,0.33072 8.74718,0.32406 9.23477,0.40534 9.23477,1.53946 0,0.73855 -2.89814,2.48588 -5.46748,3.29642 -2.16019,0.68147 -2.16019,0.68147 -8.59896,-0.43313 -12.49837,-2.16357 -13.58347,-2.32858 -13.81923,-2.10143 -0.29075,0.28014 -0.94353,0.14777 10.42317,2.1136 9.69347,1.67645 10.57484,1.93336 10.04286,2.92737 -0.33544,0.62678 -3.16823,1.95813 -4.96266,2.33233 -2.61211,0.54472 -3.04748,0.43558 -10.32432,-2.58828 -3.81274,-1.58437 -6.99534,-2.7786 -7.07244,-2.65384 -0.0771,0.12475 0.31109,0.41697 0.86266,0.64937 0.55157,0.2324 3.62223,1.50197 6.82369,2.82126 7.06262,2.91045 7.66251,3.42365 5.24964,4.49098 -1.01065,0.44706 -1.6194,0.52496 -3.37996,0.43256 -2.1473,-0.11271 -2.1473,-0.11271 -6.63722,-2.92082 -2.46946,-1.54447 -4.53227,-2.76576 -4.58404,-2.714 -0.23328,0.23328 0.46841,0.74741 4.31771,3.16355 5.38262,3.37859 6.16529,4.28393 4.70314,5.44031 -0.59707,0.47221 -0.95307,0.54909 -1.98437,0.42854 -1.22832,-0.14357 -1.25677,-0.13054 -1.25677,0.57552 0,1.39947 -1.78231,2.71519 -3.18218,2.34912 -0.38562,-0.10085 -0.62962,0.1338 -1.05686,1.01635 -0.43099,0.89032 -0.86001,1.29922 -1.91434,1.82462 -1.65433,0.82439 -1.62726,0.82367 -2.13006,0.0563 z M 41.686973,110.5949 c 2.96026,-1.63371 9.53894,-3.09942 18.38854,-4.09691 3.34698,-0.37725 6.84706,-0.86136 7.77795,-1.0758 0.9309,-0.21443 1.71046,-0.35777 1.73237,-0.31852 0.0219,0.0392 0.17758,0.39248 0.34594,0.78496 0.34476,0.80372 1.2122,1.44613 2.59429,1.92127 1.17416,0.40366 0.9315,0.63155 -1.65991,1.55888 -2.31471,0.82832 -2.87878,0.86666 -6.42501,0.43678 -3.9352,-0.47703 -12.15148,-0.18154 -17.59479,0.63279 -2.32833,0.34831 -4.65005,0.64102 -5.15938,0.65046 -0.92604,0.0172 -0.92604,0.0172 0,-0.49391 z m 94.737397,-2.09813 c 3.51055,-2.9657 12.61321,-6.85841 22.60531,-9.667055 10.16815,-2.85814 20.76979,-4.56954 20.76979,-3.35283 0,1.122 -3.32825,3.79419 -6.86908,5.515055 -2.30273,1.11914 -2.81186,1.25643 -6.35,1.71239 -4.99653,0.64389 -11.79913,1.85917 -16.94342,3.02693 -4.07862,0.92585 -13.49229,3.45515 -13.72476,3.68762 -0.067,0.067 -0.18377,0.0598 -0.25955,-0.016 -0.0758,-0.0758 0.27149,-0.48352 0.77171,-0.9061 z m -55.861037,-0.81751 c -0.66151,-0.35403 -0.69163,-1.86327 -0.0487,-2.44261 1.28466,-1.15773 3.24114,-0.63847 3.24114,0.86021 0,1.45763 -1.7784,2.33914 -3.19239,1.5824 z m -2.34231,-0.14554 c -0.0615,-0.0615 0.17589,-0.41809 0.52755,-0.79241 0.63938,-0.68059 0.63938,-0.68059 0.81252,-0.0651 0.3372,1.19871 0.27305,1.34614 -0.50118,1.15182 -0.39988,-0.10036 -0.77738,-0.2328 -0.83889,-0.29431 z m 33.254377,6.77799 c 1.56495,-0.56317 4.46659,-2.0877 12.76157,-6.705 10.18944,-5.67183 15.56319,-8.618955 17.42851,-9.558315 2.19601,-1.10589 2.67755,-1.67384 3.72742,-4.39624 0.97386,-2.52531 1.03991,-3.62063 0.23623,-3.91793 -0.5487,-0.20298 -0.53961,-0.2306 0.26397,-0.8028 1.50221,-1.06967 2.75759,-3.33714 3.3301,-6.01481 0.25123,-1.17507 -0.34799,-1.7345 -1.50305,-1.40323 -0.4718,0.13531 -0.89789,0.24602 -0.94687,0.24602 -0.049,0 0.51849,-0.68165 1.26104,-1.51478 3.66834,-4.11578 3.45974,-6.55795 -0.47435,-5.55331 -6.98132,1.78282 -18.298,10.14219 -28.62846,21.14719 -3.46316,3.68929 -12.61041,14.175185 -13.53768,15.518845 -0.74039,1.07285 0.18057,2.19307 2.56842,3.12411 1.13143,0.44115 1.92164,0.40297 3.51315,-0.16975 z m -4.19047,-0.73617 c -2.22299,-1.12596 -2.23236,-1.10404 3.16511,-7.4048 11.15653,-13.023605 19.09882,-20.588885 27.41421,-26.112885 4.66314,-3.09777 10.51378,-5.6158 11.85367,-5.10164 1.09407,0.41983 0.0116,2.65877 -2.65676,5.49529 -2.19385,2.33208 -2.26346,2.68792 -0.39475,2.01815 1.32956,-0.47653 2.17882,-0.57312 2.17367,-0.24723 -0.0324,2.04422 -1.6939,4.99302 -3.70263,6.57117 -1.8662,1.46617 -1.98231,1.81055 -0.52757,1.56477 1.26885,-0.21437 1.33389,0.0487 0.56223,2.27368 -0.99754,2.87634 -1.60532,3.81636 -2.90697,4.49602 -2.54615,1.3295 -11.75411,6.368065 -16.96984,9.285845 -10.47728,5.86119 -14.52956,7.85362 -16.02599,7.87969 -0.30133,0.005 -1.1943,-0.31787 -1.98438,-0.71806 z"
       id="path1" /></g></svg>
